<?xml version="1.0" encoding="UTF-8"?>
<svg id="_图层_1" data-name="图层_1" xmlns="http://www.w3.org/2000/svg" version="1.1" viewBox="0 0 43.5 15.33">
  <!-- Generator: Adobe Illustrator 30.0.0, SVG Export Plug-In . SVG Version: 2.1.1 Build 123)  -->
  <defs>
    <style>
      .st0 {
        fill: #ff9c00;
        fill-rule: evenodd;
      }
    </style>
  </defs>
  <path class="st0" d="M18.83,1.35c4.64,1.66,12.62,5.48,23.93,11.47l.47-.88C31.88,5.93,23.86,2.08,19.17.41c-1.3-.47-2.28-.53-2.93-.19-.73.38-1.01,1.16-.86,2.35.26,1.97,1.8,5.3,4.64,9.98.07.8-.51,1.34-1.74,1.59-1.52.32-3.92.24-7.2-.26C4.68,12.92,1.32,9.08,1,2.36L0,2.4c.35,7.27,3.99,11.43,10.93,12.47,3.39.51,5.91.59,7.55.24,1.89-.4,2.73-1.33,2.52-2.81v-.1s-.07-.09-.07-.09c-2.8-4.61-4.32-7.83-4.56-9.68-.09-.73.01-1.17.33-1.34.39-.2,1.1-.12,2.13.25Z"/>
</svg>