<svg xmlns="http://www.w3.org/2000/svg" xmlns:xlink="http://www.w3.org/1999/xlink" fill="none" version="1.1" width="43.5" height="15.328790664672852" viewBox="0 0 43.5 15.328790664672852"><path d="M18.831833,1.34966254Q25.797903,3.8375545,42.76606,12.820679L43.233944,11.93689Q26.202101,2.9200485,19.168169,0.407921076Q17.212803,-0.29042791999999995,16.238073999999997,0.21642857999999998Q15.146454,0.7840693000000001,15.3792,2.5684557Q15.765277,5.5283813,20.01585,12.544695Q20.116964,13.751102,18.271996,14.139517Q15.985118,14.620964,11.074171,13.884322Q1.47991753,12.445185,0.99943408,2.3550094L0.0005659199999999975,2.4025743Q0.5200786589999999,13.312397,10.92583,14.87326Q16.014882999999998,15.636618,18.478006,15.118065Q21.311193,14.521605,20.994976,12.308081L20.980503,12.206775L20.927395,12.119303Q16.732155,5.2094917,16.3708,2.4391165Q16.228546,1.34850281,16.699427,1.10364598Q17.287199,0.79800498,18.831833,1.34966254Z" fill-rule="evenodd" fill="#FA2D2D" fill-opacity="1"/></svg>