<svg xmlns="http://www.w3.org/2000/svg" xmlns:xlink="http://www.w3.org/1999/xlink" fill="none" version="1.1" width="27" height="27" viewBox="0 0 27 27"><ellipse cx="13.5" cy="13.5" rx="8" ry="8" fill-opacity="0" stroke-opacity="1" stroke="#FA2D2D" fill="none" stroke-width="1"/><path d="M13.500001,1.9184655e-15L16.53121,9.3278999L26.339264,9.3282709L18.404598,15.0936L21.435101,24.42173L13.500001,18.657L5.5648999,24.42173L8.5954018,15.093601L0.66073698,9.3282719L10.468791,9.3278999L13.500001,1.9184655e-15Z" fill="#FA2D2D" fill-opacity="1"/><path d="M16.53121,9.3278999L14.025739,1.6178455L13.500001,0L10.468791,9.3278999L2.3618608,9.328207L0.66073698,9.3282719L2.0369377,10.328219L8.5954018,15.093601L6.0905151,22.803844L5.5648999,24.42173L6.9411764,23.421886L13.500001,18.657L20.058823,23.421885L21.435101,24.42173L20.909485,22.803843L18.404598,15.0936L24.963062,10.328218L26.339264,9.3282709L24.638138,9.328207L16.53121,9.3278999ZM23.261938,10.328155L15.804688,10.327872L13.500001,3.2356908L11.195313,10.327872L3.7380614,10.328156L9.7709398,14.711646L7.4667916,21.803999L13.500001,17.420965L19.533207,21.803999L17.229059,14.711645L23.261938,10.328155Z" fill-rule="evenodd" fill="#FFFFFF" fill-opacity="1"/></svg>