<svg xmlns="http://www.w3.org/2000/svg" viewBox="0 0 414 1484">
  <defs>
    <radialGradient id="a" cx="201.12" cy="-511.28" r="1533.73" fx="-1231.62" fy="-1058.59" gradientUnits="userSpaceOnUse">
      <stop offset=".25" stop-color="#f58888" stop-opacity=".6"/>
      <stop offset=".92" stop-color="#f58888" stop-opacity="0"/>
    </radialGradient>
    <radialGradient id="b" cx="197.45" cy="-1220.45" r="1508.33" fx="197.45" fy="-1220.45" gradientUnits="userSpaceOnUse">
      <stop offset=".86" stop-color="#f58888" stop-opacity=".7"/>
      <stop offset="1" stop-color="#f58888" stop-opacity="0"/>
    </radialGradient>
    <radialGradient id="c" cx="292.22" cy="-863.08" r="1592.34" fx="292.22" fy="-863.08" gradientUnits="userSpaceOnUse">
      <stop offset=".65" stop-color="#f58888" stop-opacity=".8"/>
      <stop offset=".86" stop-color="#f58888" stop-opacity="0"/>
    </radialGradient>
    <radialGradient id="d" cx="220.33" cy="230.02" r="1314.04" fx="220.33" fy="230.02" gradientUnits="userSpaceOnUse">
      <stop offset="0" stop-color="#f58888"/>
      <stop offset=".56" stop-color="#f58888" stop-opacity="0"/>
    </radialGradient>
  </defs>
  <g>
    <g style="opacity:.5">
      <path d="M414 .09v1483.82H0V.09C66.45 15.8 135.75 24.12 207 24.12S347.55 15.8 414 .09" style="fill:#f58888"/>
    </g>
    <path d="M414 .09v18.62C287.34 74.5 147.29 105.47 0 105.48V.09C66.45 15.8 135.75 24.12 207 24.12S347.55 15.8 414 .09" style="fill:url(#a)"/>
    <path d="M414 18.71v169.52c-142.71-2.66-281.33-22.02-414-56.2v-26.55c147.29-.01 287.34-30.98 414-86.77" style="fill:url(#b)"/>
    <path d="M414 188.23v15.31c-123.92 28.72-253.08 43.91-385.81 43.91-9.42 0-18.81-.08-28.19-.24V132.03c132.67 34.18 271.29 53.54 414 56.2" style="fill:url(#c)"/>
    <path d="M414 203.54v1280.37H0V247.21c9.38.16 18.77.24 28.19.24 132.73 0 261.89-15.19 385.81-43.91" style="fill:url(#d)"/>
  </g>
</svg>
