<?xml version="1.0" encoding="UTF-8"?>
<svg id="_图层_1" data-name="图层_1" xmlns="http://www.w3.org/2000/svg" version="1.1" viewBox="0 0 27 27">
  <!-- Generator: Adobe Illustrator 30.0.0, SVG Export Plug-In . SVG Version: 2.1.1 Build 123)  -->
  <defs>
    <style>
      .st0 {
        fill: #fff;
        fill-rule: evenodd;
      }

      .st1 {
        fill: #faad33;
      }

      .st2 {
        fill: none;
        stroke: #faad33;
      }
    </style>
  </defs>
  <circle class="st2" cx="13.5" cy="13.5" r="8"/>
  <path class="st1" d="M13.5,0l3.03,9.33h9.81s-7.93,5.77-7.93,5.77l3.03,9.33-7.94-5.76-7.94,5.76,3.03-9.33L.66,9.33h9.81S13.5,0,13.5,0Z"/>
  <path class="st0" d="M16.53,9.33l-2.51-7.71-.53-1.62-3.03,9.33H2.36s-1.7,0-1.7,0l1.38,1,6.56,4.77-2.5,7.71-.53,1.62,1.38-1,6.56-4.76,6.56,4.76,1.38,1-.53-1.62-2.5-7.71,6.56-4.77,1.38-1h-1.7s-8.11,0-8.11,0ZM23.26,10.33h-7.46s-2.3-7.09-2.3-7.09l-2.3,7.09H3.74s6.03,4.38,6.03,4.38l-2.3,7.09,6.03-4.38,6.03,4.38-2.3-7.09,6.03-4.38Z"/>
</svg>